<svg width="32" height="32" viewBox="0 0 32 32" fill="none" xmlns="http://www.w3.org/2000/svg">
<g clip-path="url(#clip0_30_44)">
<path d="M16.0208 32.0001C14.0249 32.0388 12.0542 31.5472 10.3066 30.5745C8.67834 29.6375 7.33295 28.2724 6.41397 26.6248C5.4493 24.8568 4.96173 22.8645 4.99998 20.847C4.95979 18.8187 5.44729 16.8151 6.41397 15.0357C7.33295 13.3882 8.67834 12.023 10.3066 11.086C12.0542 10.1134 14.0249 9.62169 16.0208 9.66045C18.0005 9.62382 19.9547 10.1156 21.685 11.086C23.3169 12.0183 24.6634 13.3845 25.5777 15.0357C26.5509 16.8128 27.0415 18.8175 27 20.847C27.0398 22.8626 26.5582 24.8539 25.6026 26.6248C24.6971 28.2769 23.3555 29.644 21.7266 30.5745C19.9824 31.548 18.0141 32.0397 16.0208 32.0001ZM16.0208 28.3774C17.3083 28.4038 18.578 28.07 19.6888 27.4131C20.7462 26.7738 21.6093 25.8544 22.1841 24.7548C22.8021 23.5481 23.1109 22.2048 23.0824 20.847C23.1087 19.4842 22.8001 18.1359 22.1841 16.9225C21.6153 15.8142 20.7512 14.8878 19.6888 14.2475C18.578 13.5905 17.3083 13.2567 16.0208 13.2831C14.7296 13.2582 13.457 13.5949 12.3444 14.2558C11.2859 14.901 10.4229 15.8262 9.84913 16.9309C9.21267 18.1352 8.88931 19.4826 8.90924 20.847C8.88085 22.2077 9.1987 23.5531 9.83249 24.7548C10.4115 25.8514 11.2736 26.7699 12.3278 27.4131C13.446 28.0741 14.7248 28.408 16.0208 28.3774Z" fill="#4C7D65"/>
<path d="M23.1156 5.76545e-05C21.0861 -0.301829 16.1205 2.6835 15.8128 7.54723C15.8106 7.5747 15.8002 7.60085 15.7827 7.6221C15.7653 7.64336 15.7419 7.65869 15.7155 7.66602C15.6892 7.67335 15.6612 7.67232 15.6355 7.66307C15.6097 7.65382 15.5874 7.63679 15.5716 7.61431C14.9757 6.70421 14.097 6.01935 13.0733 5.66723C12.0496 5.31511 10.939 5.31567 9.91563 5.66882C9.69725 5.75235 9.51218 5.90597 9.38893 6.10599C9.26568 6.30602 9.2111 6.54135 9.23359 6.77574C9.39994 7.76526 10.0653 9.09859 12.6604 9.2076C13.0082 9.22998 13.3354 9.38101 13.5795 9.63172C13.8236 9.88243 13.9672 10.2152 13.9829 10.5661C14.0328 13.4676 14.1742 13.3082 14.1742 13.3082H18.4162V8.3858C18.4155 8.18335 18.4744 7.98524 18.5855 7.81656C18.6965 7.64788 18.8547 7.51621 19.04 7.43821C20.5954 6.8009 23.9308 5.50111 24.2884 1.25792C24.3466 0.545131 23.8309 0.13423 23.1156 5.76545e-05Z" fill="#4C7D65"/>
</g>
<defs>
<clipPath id="clip0_30_44">
<rect width="22" height="32" fill="white" transform="translate(5)"/>
</clipPath>
</defs>
</svg>
