<svg xmlns="http://www.w3.org/2000/svg" viewBox="0 0 125.71 38.45"><defs><style>.cls-1{fill:#4c7d65;}</style></defs><g id="Layer_2" data-name="Layer 2"><g id="Layer_1-2" data-name="Layer 1"><path class="cls-1" d="M19.06,38.45A20.3,20.3,0,0,1,11.33,37a17.48,17.48,0,0,1-6-4A18.09,18.09,0,0,1,1.39,27,20.87,20.87,0,0,1,0,19.2a20.73,20.73,0,0,1,1.39-7.73A18.16,18.16,0,0,1,5.3,5.4a17.48,17.48,0,0,1,6-4A20.3,20.3,0,0,1,19.06,0a20.15,20.15,0,0,1,7.7,1.42,17.72,17.72,0,0,1,6,4,17.93,17.93,0,0,1,3.94,6.07,20.73,20.73,0,0,1,1.39,7.73A20.87,20.87,0,0,1,36.72,27,17.65,17.65,0,0,1,26.76,37,20.15,20.15,0,0,1,19.06,38.45Zm0-4.51a14.33,14.33,0,0,0,5.73-1.13A13.68,13.68,0,0,0,32.28,25a16,16,0,0,0,1-5.81,16,16,0,0,0-1-5.81,13.84,13.84,0,0,0-3-4.68,13.36,13.36,0,0,0-4.54-3.09,14.49,14.49,0,0,0-5.73-1.11,14.54,14.54,0,0,0-5.74,1.11A13.14,13.14,0,0,0,8.81,8.71a14.16,14.16,0,0,0-2.95,4.68A15.63,15.63,0,0,0,4.8,19.2,15.63,15.63,0,0,0,5.86,25a14.16,14.16,0,0,0,3,4.68,13.5,13.5,0,0,0,4.51,3.12A14.37,14.37,0,0,0,19.06,33.94Z"/><path class="cls-1" d="M47.86,38a2.47,2.47,0,0,1-1.78-.6,2.37,2.37,0,0,1-.62-1.8V14.11a2.36,2.36,0,0,1,.62-1.77,2.4,2.4,0,0,1,1.78-.63,2.44,2.44,0,0,1,1.8.6,2.44,2.44,0,0,1,.6,1.8V35.57a2.43,2.43,0,0,1-.6,1.77A2.37,2.37,0,0,1,47.86,38Zm0-16.42a9.61,9.61,0,0,1,1.41-5.16A10.38,10.38,0,0,1,53,12.77a10.58,10.58,0,0,1,5.28-1.35,8,8,0,0,1,4.3.94,2,2,0,0,1,1.08,2.23,1.81,1.81,0,0,1-.56,1,1.86,1.86,0,0,1-.93.46,2.83,2.83,0,0,1-1.15,0,13.41,13.41,0,0,0-5.52-.09,7.46,7.46,0,0,0-3.87,2,5,5,0,0,0-1.41,3.65Z"/><path class="cls-1" d="M78.77,38.16A13.11,13.11,0,0,1,72,36.41a13,13,0,0,1-4.75-4.78,13.31,13.31,0,0,1-1.75-6.81A14.2,14.2,0,0,1,67.13,18a12.41,12.41,0,0,1,4.39-4.75A12.18,12.18,0,0,1,83,12.7a11.68,11.68,0,0,1,4,3.19v-13a2.34,2.34,0,0,1,.7-1.78,2.66,2.66,0,0,1,3.53,0A2.44,2.44,0,0,1,92,2.93V24.82a13.41,13.41,0,0,1-1.75,6.81,12.91,12.91,0,0,1-11.45,6.53Zm0-4.32a8.18,8.18,0,0,0,4.37-1.18,8.28,8.28,0,0,0,3-3.24,9.53,9.53,0,0,0,1.1-4.6,9.38,9.38,0,0,0-1.1-4.61,8.35,8.35,0,0,0-3-3.19,8.64,8.64,0,0,0-8.72,0,8.48,8.48,0,0,0-3.07,3.19,9.29,9.29,0,0,0-1.13,4.61,9.44,9.44,0,0,0,1.13,4.6,8.4,8.4,0,0,0,3.07,3.24A8.21,8.21,0,0,0,78.77,33.84Z"/><path class="cls-1" d="M112.51,38.16a13.61,13.61,0,0,1-6.86-1.7A12.31,12.31,0,0,1,101,31.75a13.65,13.65,0,0,1-1.71-6.89A13.75,13.75,0,0,1,101,17.93a12.31,12.31,0,0,1,4.68-4.71,14.61,14.61,0,0,1,13.68,0A12.45,12.45,0,0,1,124,17.93a13.85,13.85,0,0,1,1.7,6.93A13.84,13.84,0,0,1,124,31.75a12.19,12.19,0,0,1-4.66,4.71A13.61,13.61,0,0,1,112.51,38.16Zm0-4.32a8.42,8.42,0,0,0,4.42-1.15,8.1,8.1,0,0,0,3-3.17A9.71,9.71,0,0,0,121,24.86a9.85,9.85,0,0,0-1.08-4.68,8,8,0,0,0-3-3.19,9.07,9.07,0,0,0-8.84,0,8.21,8.21,0,0,0-3,3.19,9.63,9.63,0,0,0-1.1,4.68,9.5,9.5,0,0,0,1.1,4.66,8.3,8.3,0,0,0,3,3.17A8.42,8.42,0,0,0,112.51,33.84Z"/><path class="cls-1" d="M121,0c-2.43-.39-8.4,3.17-8.82,9a.16.16,0,0,1-.29.08,5.86,5.86,0,0,0-6.75-2.35,1.27,1.27,0,0,0-.82,1.32c.19,1.18,1,2.77,4.11,2.9a1.69,1.69,0,0,1,1.59,1.62c.07,3.46.23,3.27.23,3.27h5.1V10a1.22,1.22,0,0,1,.75-1.13c1.87-.76,5.89-2.31,6.31-7.36C122.52.65,121.9.16,121,0Z"/></g></g></svg>